<svg xmlns="http://www.w3.org/2000/svg" viewBox="0 0 165.01 65"><defs><style>.a{fill:#ffffff;}</style></defs><title>Artboard 8 - Uni Zurich (EN)</title><path class="a" d="M58.92,43.19V41.25l4.69-7.65a13.34,13.34,0,0,1,.85-1.24c-.47,0-1.08,0-2.38,0h-3V30.14H67.5v2l-5,7.84c-.19.31-.37.6-.6.91.33,0,1.22,0,2.82,0h2.82v2.32Zm16.65,0a10.66,10.66,0,0,1,.11-1.7l0,0A3.49,3.49,0,0,1,72.4,43.4c-2.16,0-2.86-1.39-2.86-3.07V33.58H72v6.14c0,1,.27,1.6,1.2,1.6,1.26,0,2.22-1.43,2.22-3.11V33.58h2.47v9.6Zm10.12-7.38c-1.78-.37-2.67.79-2.67,3.46v3.92H80.55v-9.6h2.34a12.74,12.74,0,0,1-.17,1.93h0a2.92,2.92,0,0,1,3.05-2.14Zm3.14-3.46a1.5,1.5,0,1,1,1.55-1.51A1.53,1.53,0,0,1,88.83,32.35ZM87.59,43.19v-9.6h2.47v9.6Zm8.61.17c-2.67,0-4.33-1.39-4.33-4.66,0-3,1.56-5.29,5-5.29a7.42,7.42,0,0,1,2,.27l-.25,2.15a5.05,5.05,0,0,0-1.74-.35c-1.57,0-2.36,1.16-2.36,3,0,1.64.64,2.76,2.28,2.76a4.34,4.34,0,0,0,1.89-.41l.19,2.11A7.66,7.66,0,0,1,96.2,43.36Zm10.45-.17V37c0-1-.27-1.6-1.18-1.6-1.26,0-2.24,1.43-2.24,3.11v4.64h-2.47V29.08h2.47V33.2a9.33,9.33,0,0,1-.17,2l0,0a3.39,3.39,0,0,1,3.15-1.8c2.16,0,2.86,1.39,2.86,3.07v6.74Zm6.28-9.1c-1.57,0-1.94-.85-1.94-1.83V29.07h1.14v3.12c0,.58.18.94.88.94s.89-.27.89-1V29.07H115v3A1.84,1.84,0,0,1,112.93,34.09Zm3-.09V33.1l1.58-2.65a4.32,4.32,0,0,1,.26-.38H116v-1h3.19V30l-1.67,2.68-.19.28c.09,0,.37,0,1,0h.93V34Zm7.24,0v-2h-1.8v2h-1.14V29.07h1.14V31h1.8V29.07h1.14V34ZM64.44,23c-4.12,0-5-2.24-5-4.73V9.73h2.51v8.37c0,1.64.54,2.8,2.71,2.8,1.93,0,2.74-.81,2.74-3V9.73h2.49v8C69.85,21.28,67.88,23,64.44,23Zm14-.21V16.63c0-1-.27-1.6-1.18-1.6C76,15,75,16.45,75,18.13v4.64H72.54v-9.6h2.34a10.62,10.62,0,0,1-.14,1.7l0,0A3.51,3.51,0,0,1,78,13c2.16,0,2.86,1.39,2.86,3.07v6.74ZM84.8,11.93a1.5,1.5,0,1,1,1.54-1.51A1.51,1.51,0,0,1,84.8,11.93ZM83.57,22.77v-9.6H86v9.6Zm9.93,0H91l-3.55-9.6h2.71l1.52,4.33c.23.66.47,1.43.64,2.13h0a20.78,20.78,0,0,1,.58-2l1.55-4.41h2.63Zm12.42-4.41h-6A2.33,2.33,0,0,0,102.61,21a6.87,6.87,0,0,0,2.8-.6l.23,1.91a9.55,9.55,0,0,1-3.44.62c-3.05,0-4.75-1.53-4.75-4.91,0-2.94,1.62-5.1,4.5-5.1s4,1.91,4,4.29A7.92,7.92,0,0,1,105.92,18.36Zm-4-3.59A1.92,1.92,0,0,0,100,16.68h3.54A1.63,1.63,0,0,0,101.88,14.77Zm11.32.62c-1.78-.37-2.67.79-2.67,3.46v3.92h-2.47v-9.6h2.34a12.49,12.49,0,0,1-.18,1.93h0A2.92,2.92,0,0,1,113.32,13ZM116.58,23a13.14,13.14,0,0,1-2-.17l.06-2a8.43,8.43,0,0,0,2.07.29c.94,0,1.56-.39,1.56-1,0-1.7-3.88-.73-3.88-4,0-1.68,1.37-3.07,4.08-3.07a11.09,11.09,0,0,1,1.76.17l-.08,2a6.7,6.7,0,0,0-1.78-.25c-1,0-1.43.39-1.43,1,0,1.56,3.94.87,3.94,4C120.87,21.69,119.21,23,116.58,23Zm7.63-11a1.5,1.5,0,1,1,1.55-1.51A1.53,1.53,0,0,1,124.21,11.93ZM123,22.77v-9.6h2.47v9.6Zm8.71.19c-2.12,0-2.8-.77-2.8-3V15.08h-1.64V13.17h1.64v-3l2.47-.66v3.61h2.34v1.91h-2.34v4.21c0,1.24.29,1.58,1.14,1.58a4.71,4.71,0,0,0,1.2-.15v2A8.53,8.53,0,0,1,131.69,23Zm8.58.7c-1.14,3-2.15,3.9-4.35,3.9a6.3,6.3,0,0,1-1.35-.16l.16-2.13a4.32,4.32,0,0,0,1.31.21c.81,0,1.35-.37,1.85-1.8l.33-.93-3.54-9.6h2.74l1.29,3.67c.29.83.54,1.78.75,2.65h0c.21-.87.62-2.15.93-3.05l1.14-3.27h2.65Zm11.88-.7c-2.72,0-4.48-1.41-4.48-4.83A4.83,4.83,0,0,1,152.58,13c2.72,0,4.48,1.51,4.48,4.81A4.85,4.85,0,0,1,152.15,23Zm.25-7.9c-1.1,0-2.18.85-2.18,2.82s.71,3,2.14,3c1.22,0,2.15-1,2.15-2.94S153.85,15.06,152.4,15.06Zm12.44-4.37a3.75,3.75,0,0,0-1.2-.17c-1.08,0-1.57.56-1.57,1.83v.81h2.24v1.91h-2.24v7.69h-2.45V15.08h-1.68V13.17h1.68v-.77c0-2.61,1.2-3.88,3.82-3.88a7.06,7.06,0,0,1,1.57.15Z"/><path class="a" d="M7.31,35.16l-.78.34c-.12.06-.17.12-.14.25a.9.9,0,0,0,.05.15s0,.07,0,.08,0,0-.07-.07-.17-.43-.22-.54l-.21-.45c0-.06,0-.08,0-.09s0,0,.06,0l.06.1c.06.09.14.09.27,0l.78-.33.52-.22c.53-.23.71-.43.78-.68a.75.75,0,0,0,0-.53.78.78,0,0,0-.42-.42,1.37,1.37,0,0,0-1,.18l-.46.2-.78.34c-.12.06-.17.12-.14.25a.73.73,0,0,0,0,.14s0,.07,0,.08,0,0-.07-.06-.17-.43-.17-.43l-.19-.41c0-.05,0-.08,0-.09s0,0,.06.05a.51.51,0,0,0,.06.1c.06.09.14.09.27,0l.79-.33.39-.17A1.51,1.51,0,0,1,8,32.61a1.2,1.2,0,0,1,.59.65,1.29,1.29,0,0,1,.1.93,1.32,1.32,0,0,1-.83.75Zm-.15-4.1c.3-.07.39-.15.4-.23a.63.63,0,0,0,0-.21s0-.07,0-.07,0,0,.06.08c.06.25.08.41.09.49s.06.22.11.42c0,.05,0,.09,0,.09s0,0,0-.06a.64.64,0,0,0-.06-.17c-.05-.1-.17-.09-.51,0l-2.33.47c-.08,0-.14,0-.14,0s0-.09.09-.17.55-.79,1-1.49c.21-.32.66-1,.7-1.06v0l-1.75.42c-.24.06-.3.11-.32.21a.68.68,0,0,0,0,.21s0,.06,0,.07,0,0-.06-.09-.07-.39-.09-.48-.06-.19-.1-.38,0-.09,0-.1,0,0,.05.06a.43.43,0,0,0,0,.11c.06.1.14.12.36.07l2.48-.5c.09,0,.12,0,.13,0s0,.1-.06.15c-.18.3-.58.91-.9,1.41s-.72,1.06-.78,1.15h0ZM5.22,27.48l-.85.06c-.14,0-.2.06-.22.15a.67.67,0,0,0,0,.15s0,.06,0,.07,0,0,0-.09,0-.41,0-.52S4,27,4,26.8s0-.08,0-.09,0,0,0,.06a.74.74,0,0,0,0,.12c0,.11.1.13.24.13l.85,0,.7,0c.39,0,.71,0,.88-.07s.18-.05.18-.17a1.53,1.53,0,0,0,0-.21s0-.07,0-.07,0,0,0,.07c0,.26,0,.52,0,.63s0,.34,0,.5,0,.08,0,.08,0,0,0-.06a.69.69,0,0,0,0-.14c0-.08-.09-.1-.21-.1s-.49,0-.87,0Zm-.86-1.8c-.22.08-.27.14-.32.29a.55.55,0,0,0,0,.16s0,0,0,0,0,0,0-.11c0-.21,0-.44,0-.58s0-.29,0-.49c0,0,0-.09,0-.09s0,0,0,.06a.28.28,0,0,0,0,.16.09.09,0,0,0,.08,0,1.17,1.17,0,0,0,.32-.07l1.86-.57v0l-1.94-.92-.15,0a.08.08,0,0,0-.08,0,.52.52,0,0,0,0,.16s0,.07,0,.07,0,0,0-.11,0-.37,0-.42,0-.26,0-.38,0-.08,0-.08,0,0,0,.07a.35.35,0,0,0,0,.2c0,.05.1.12.34.24s.58.3,1.05.55l1.19.61c.23.12.29.15.29.2s-.06.07-.25.14ZM5.5,22.14,4.66,22c-.13,0-.21,0-.26.12a.76.76,0,0,0,0,.15s0,.06,0,.06,0,0,0-.09l.07-.32.06-.25c0-.13.19-.91.21-1a1.61,1.61,0,0,0,0-.17.44.44,0,0,1,0-.07s0,0,0,0a2.59,2.59,0,0,0,.25.09l.25.08s0,0,0,0,0,0-.06,0a.44.44,0,0,0-.15,0c-.08,0-.13,0-.2.23s-.12.48-.14.55,0,0,0,0l1,.21s0,0,0,0,.12-.54.13-.63a.28.28,0,0,0,0-.2s0-.05,0-.07,0,0,0,0l.28.09.26.07s.07,0,.07.05a0,0,0,0,1,0,0H6.28c-.08,0-.15,0-.2.19S6,21.6,6,21.69s0,0,0,0l.31.07.61.13c.27.05.34,0,.43-.4a1,1,0,0,0,0-.38c0-.11-.1-.18-.25-.24s-.06,0-.05-.06,0,0,.08,0a3,3,0,0,1,.42.14c.1,0,.09.08.06.23s-.12.51-.16.68-.07.29-.1.41l0,.22c0,.09,0,.19-.05.27s0,.08-.06.07,0,0,0-.07a.62.62,0,0,0,0-.14c0-.08-.08-.12-.19-.16s-.47-.12-.83-.2Zm.74-2.89-.8-.3c-.13,0-.2,0-.27.08a.94.94,0,0,0-.07.14s0,.06-.06.05,0,0,0-.1l.21-.51.19-.53a1.29,1.29,0,0,1,.43-.63.7.7,0,0,1,.61-.06,1.12,1.12,0,0,1,.65.82c.55-.17,1-.3,1.3-.43a.8.8,0,0,0,.42-.32l.05-.1s0,0,0,0,0,0,0,.09l-.14.35a.82.82,0,0,1-.23.37,1.94,1.94,0,0,1-.75.3l-.66.17a.08.08,0,0,0-.05.06L7,19a0,0,0,0,0,0,0l.05,0c.35.13.64.25.81.29s.2,0,.26-.07l.09-.18s0,0,0,0,0,0,0,.09c-.08.22-.2.49-.22.55l-.17.46s0,.07-.07.06,0,0,0-.07a.67.67,0,0,0,0-.14c0-.08-.06-.13-.16-.19s-.45-.19-.79-.33Zm.47-.33s.06,0,.08,0a1,1,0,0,0,.15-.27.4.4,0,0,0,0-.29.71.71,0,0,0-.48-.44.64.64,0,0,0-.9.31.88.88,0,0,0-.06.2s0,0,0,.05Zm2.36-1.67c-.06,0-.08,0-.16,0S8.52,17,8.47,17s-.08-.07-.07-.09.05,0,.08,0l.2.07a.55.55,0,0,0,.63-.3A.49.49,0,0,0,9.18,16a.76.76,0,0,0-.75,0l-.22.09a1.2,1.2,0,0,1-1.12,0,.81.81,0,0,1-.2-1.18,1.88,1.88,0,0,1,.32-.43s0,0,.07,0,.14.1.41.25c.08,0,.1.07.08.1s0,0-.08,0a.49.49,0,0,0-.28,0,.51.51,0,0,0-.39.28.42.42,0,0,0,.12.62c.16.09.33.08.71-.08L8,15.56a1.24,1.24,0,0,1,1.21-.07.81.81,0,0,1,.42.67,1.17,1.17,0,0,1-.17.64A1.41,1.41,0,0,1,9.07,17.25ZM9,13.94l-.69-.5c-.11-.07-.19-.08-.26,0a.54.54,0,0,0-.1.11s0,0-.07,0,0,0,0-.1L8.2,13l.28-.4s.06-.06.08,0,0,0,0,.08l-.06.1c0,.1,0,.17.1.25l.68.51.57.42c.31.23.57.42.72.5s.17.07.25,0l.13-.16s0,0,.06,0,0,0,0,.09l-.38.5-.29.42s-.06.06-.08,0,0,0,0-.07a.55.55,0,0,0,.07-.13c0-.07,0-.13-.09-.21s-.38-.3-.7-.53Zm1-2.7-.4.44c-.15.18-.21.26-.18.36a.43.43,0,0,0,.06.15s0,0,0,.07,0,0-.07,0-.26-.35-.28-.38,0-.07,0-.09.08,0,.15-.09l.29-.28,1.09-1.15a1.92,1.92,0,0,0,.18-.21l.06-.09s0,0,.08,0l.33.33s0,.05,0,.07,0,0-.09,0l0,0c-.08-.07-.24-.06-.49.19l-.35.36L11.5,12c.27.25.5.47.64.57s.17.11.26,0l.15-.14s.05,0,.07,0,0,.05,0,.08l-.44.45-.34.38s-.06.05-.08,0,0,0,0-.07a.61.61,0,0,0,.09-.12c0-.07,0-.15-.08-.24s-.34-.35-.61-.6Zm3-.49s0,0,0,0l.19.58a.73.73,0,0,0,.1.23c0,.06.11.07.2,0l0,0s.05,0,.07,0,0,0,0,.07l-.34.26-.36.3s-.06,0-.08,0,0,0,0-.06l.09-.08c.13-.13.1-.29,0-.5L12.16,9c0-.12,0-.17,0-.2s.07,0,.16,0,1.73,1,2.32,1.31c.34.19.47.16.55.12l.14-.09s0,0,.06,0,0,.05-.12.15l-.6.47c-.06,0-.1.07-.11.05s0,0,0-.06a.07.07,0,0,0,0-.09l-.78-.46a0,0,0,0,0,0,0Zm.51-.67s0,0,0,0l-.9-.55s0,0,0,0,0,0,0,0l.33,1s0,0,0,0Zm2.08,0c-.07,0-.09,0-.13-.08s-.22-.4-.25-.46,0-.1,0-.11.05,0,.07,0a.79.79,0,0,0,.14.16.55.55,0,0,0,.7.06A.49.49,0,0,0,16.34,9c-.1-.17-.25-.3-.66-.35l-.23,0a1.19,1.19,0,0,1-1-.51A.82.82,0,0,1,14.86,7a1.92,1.92,0,0,1,.49-.21s.06,0,.07,0,.07.15.23.42c0,.08,0,.11,0,.13s0,0-.07,0a.49.49,0,0,0-.22-.17.51.51,0,0,0-.48.05.42.42,0,0,0-.2.6c.1.16.25.23.66.28l.14,0c.6.07.89.22,1.09.54a.81.81,0,0,1,0,.79,1.16,1.16,0,0,1-.47.47A1.37,1.37,0,0,1,15.61,10.06ZM36.55,7.14,36,6.85c-.2-.11-.3-.14-.39-.1a.47.47,0,0,0-.13.09s0,0-.06,0,0,0,0-.07.28-.33.31-.36.06-.05.08,0,0,.07.12.13l.34.22,1.37.8a1.86,1.86,0,0,0,.25.12l.1,0s0,0,0,.09l-.25.4s0,0-.06,0,0,0,0-.09l0,0c0-.09,0-.25-.3-.43L37,7.4l-.83,1.42c-.19.32-.35.59-.42.75s-.07.19,0,.27l.17.12s0,0,0,.06,0,0-.09,0l-.54-.33-.44-.25s-.06-.05-.05-.08,0,0,.07,0l.13.06c.08,0,.14,0,.21-.13s.26-.41.45-.73Zm1.81,2.28.55-.65c.08-.11.1-.18,0-.29l-.11-.11s0-.05,0-.07,0,0,.09,0l.44.39.38.31s.06.06,0,.08,0,0-.07,0L39.57,9c-.1-.06-.17,0-.26.08s-.16.18-.56.64l-.37.43c-.38.44-.45.7-.41,1a.74.74,0,0,0,.27.45.79.79,0,0,0,.56.2c.31,0,.56-.29.82-.6L40,10.8l.55-.65c.08-.11.1-.18,0-.29l-.1-.1s0,0,0-.07,0,0,.09,0l.34.31.36.29s.06.06,0,.08,0,0-.08,0l-.1-.07c-.09-.06-.16,0-.26.08s-.16.18-.56.64l-.28.33a1.52,1.52,0,0,1-1.07.67A1.2,1.2,0,0,1,38,11.7a1.3,1.3,0,0,1-.5-.79,1.32,1.32,0,0,1,.42-1Zm3,2.86.66-.54c.1-.09.13-.16.07-.28a.77.77,0,0,0-.09-.13s0-.06,0-.08,0,0,.08,0l.34.44.36.43a1.28,1.28,0,0,1,.33.68.7.7,0,0,1-.26.56,1.13,1.13,0,0,1-1,.15c-.13.56-.23,1-.27,1.34a.8.8,0,0,0,.07.52l.06.1s0,0,0,.06,0,0-.08,0l-.24-.3a.82.82,0,0,1-.21-.38,1.94,1.94,0,0,1,.11-.8c.07-.26.17-.58.18-.66a.09.09,0,0,0,0-.07l-.21-.28s0,0,0,0l0,0c-.29.23-.54.43-.66.55s-.14.16-.07.26l.11.16s0,0,0,.06-.05,0-.08,0l-.36-.47-.32-.37s0-.07,0-.09,0,0,.07,0l.1.1c.06.05.14,0,.25,0s.39-.29.68-.52Zm0,.57s0,0,0,.07a1,1,0,0,0,.16.26c.1.12.15.16.23.18a.7.7,0,0,0,.62-.19.64.64,0,0,0,.19-.94.9.9,0,0,0-.15-.16s0,0-.07,0Zm2.08,2.36.73-.44c.11-.08.15-.15.12-.23a.59.59,0,0,0-.06-.13s0-.06,0-.08,0,0,.08.07l.25.46.26.41s0,.08,0,.09,0,0-.07,0l-.07-.1c-.07-.08-.15-.08-.27,0l-.74.42-.61.36c-.34.2-.61.36-.75.46s-.14.13-.09.24a1.57,1.57,0,0,0,.09.18s0,.06,0,.07-.05,0-.07,0L42,16.37l-.26-.43s0-.08,0-.09,0,0,.06,0a.61.61,0,0,0,.09.12c.06.06.12,0,.23,0s.43-.23.76-.43Zm-.3,2.55a1.59,1.59,0,0,1,2.1-.9,1.75,1.75,0,0,1,.88,1,3.78,3.78,0,0,1,.18.55c0,.15.06.28.09.4s0,.06,0,.07l-.21.07-.4.15c-.06,0-.09,0-.1,0s0,0,.07-.07a.57.57,0,0,0,.28-.29,1.19,1.19,0,0,0-.08-.85,1,1,0,0,0-.52-.6,1.5,1.5,0,0,0-1.94,1.77c.14.33.26.51.49.59a.68.68,0,0,0,.3,0c.06,0,.08,0,.09,0s0,0,0,.06a3.8,3.8,0,0,1-.53.12.14.14,0,0,1-.15-.05,2.33,2.33,0,0,1-.36-.63A2,2,0,0,1,43.22,17.77Zm2.64,3,.83-.19c.13,0,.19-.08.19-.22a.86.86,0,0,0,0-.15s0-.07,0-.07,0,0,.05.08l.07.32c0,.1,0,.19,0,.25s.2.9.22,1l.06.16a.46.46,0,0,1,0,.06s0,0,0,0a2.26,2.26,0,0,0-.26,0l-.26,0s0,0-.05,0,0,0,0,0a.42.42,0,0,0,.14-.05c.06,0,.1-.09.08-.29s-.09-.48-.11-.56,0,0,0,0l-1,.22s0,0,0,0,.12.54.15.62.05.15.1.17.06,0,.07.05,0,0,0,0l-.29,0-.27,0s-.07,0-.08,0a0,0,0,0,1,0,0l.14,0c.07,0,.12-.1.1-.25s-.09-.47-.11-.56,0,0,0,0l-.31.07-.61.14c-.27.07-.31.14-.22.54a1,1,0,0,0,.13.36.34.34,0,0,0,.33.11s.06,0,.07,0,0,0-.06,0a3.14,3.14,0,0,1-.45,0c-.11,0-.12,0-.15-.19s-.11-.51-.14-.68-.05-.29-.08-.41,0-.13-.05-.22S44,21,44,20.92s0-.08,0-.09,0,0,0,.06a.67.67,0,0,0,0,.14c0,.07.12.07.24.06s.48-.09.84-.17Zm-.74,3.42c-.31,0-.41.07-.44.16a.63.63,0,0,0,0,.21s0,.07,0,.07,0,0,0-.09c0-.26,0-.42,0-.5s0-.22,0-.43c0-.05,0-.09,0-.09s0,0,0,.06a.66.66,0,0,0,0,.18c0,.1.15.12.5.11l2.37,0c.08,0,.14,0,.14,0s0,.08-.12.15-.68.68-1.24,1.29l-.88.91v0l1.8-.1c.24,0,.32-.05.36-.15a.65.65,0,0,0,0-.21s0-.07,0-.07,0,0,0,.1,0,.4,0,.49,0,.2,0,.39,0,.09,0,.09,0,0,0-.07a.46.46,0,0,0,0-.12c0-.11-.12-.14-.35-.14l-2.53,0c-.09,0-.12,0-.12,0s0-.09.08-.14c.23-.26.74-.79,1.13-1.22s.9-.91,1-1h0Zm-.54,3.7c0-.06.06-.07.15-.06l.52.1c.06,0,.1,0,.1.06s0,0-.07,0h-.21a.55.55,0,0,0-.48.51.49.49,0,0,0,.37.6c.19,0,.39,0,.69-.3l.17-.16a1.19,1.19,0,0,1,1-.45.81.81,0,0,1,.62,1,1.89,1.89,0,0,1-.14.52s0,.05-.06,0-.16,0-.47-.08c-.09,0-.12,0-.11-.06s0,0,.08,0a.5.5,0,0,0,.27-.07.51.51,0,0,0,.26-.41.42.42,0,0,0-.34-.53c-.18,0-.33,0-.63.34l-.1.1c-.43.43-.73.56-1.1.51a.81.81,0,0,1-.64-.47,1.15,1.15,0,0,1-.07-.65A1.43,1.43,0,0,1,44.58,27.89Zm1.2,3.4.82.22c.14,0,.21,0,.25-.07a.53.53,0,0,0,.05-.13s0-.06.06-.05,0,0,0,.1-.12.39-.15.5-.08.33-.12.47,0,.08-.05.07,0,0,0-.07a.67.67,0,0,0,0-.12c0-.11,0-.16-.18-.2l-.82-.24L45,31.58c-.37-.11-.68-.19-.85-.22s-.18,0-.23.1a1.51,1.51,0,0,0-.07.19s0,.06,0,.05,0,0,0-.08c.07-.25.15-.49.18-.6s.08-.33.13-.49,0-.07.06-.07,0,0,0,.07a.56.56,0,0,0,0,.14c0,.08.05.12.16.17s.46.15.84.26Zm-2.36,1.41c.05,0,.07,0,.15,0s.42.2.47.23.09.06.08.09,0,0-.08,0l-.2,0a.55.55,0,0,0-.6.37.49.49,0,0,0,.21.67.76.76,0,0,0,.74-.11l.21-.11a1.19,1.19,0,0,1,1.11-.17.81.81,0,0,1,.33,1.15,1.92,1.92,0,0,1-.27.46s0,0-.07,0-.15-.08-.43-.21C45,35,45,35,45,35s0,0,.08,0a.49.49,0,0,0,.28,0,.51.51,0,0,0,.35-.32.42.42,0,0,0-.19-.6c-.17-.07-.34,0-.7.16l-.12.07a1.23,1.23,0,0,1-1.2.2.8.8,0,0,1-.49-.62,1.15,1.15,0,0,1,.1-.65A1.39,1.39,0,0,1,43.42,32.71ZM14.78,44.87l-.12,0c-.06,0-.08-.06-.1-.2l-.2-1.34c0-.05,0-.08-.07-.08s-.06,0-.07.06l-.59,1.19L13,43.31c0-.06-.05-.08-.09-.08s-.05,0-.06.07l-.22,1.42c0,.07,0,.15-.08.15h-.07s-.05,0-.05,0,0,0,.06,0H13s.07,0,.07,0,0,0-.06,0h-.07s-.06,0-.06,0a.6.6,0,0,1,0-.1l.1-.8.2.42c0,.06.21.39.26.49s.06.11.11.12.06,0,.11-.13l.46-.93.12.89a.4.4,0,0,1,0,0,.07.07,0,0,1,0,0s0,0,0,0,0,0,.08,0h.46s.07,0,.08,0S14.81,44.87,14.78,44.87Zm1.83-1.34a1.24,1.24,0,0,0-.92-.25H15s-.07,0-.07,0,0,0,.06,0h.08c.07,0,.08,0,.08.1s0,.13,0,.46v.38c0,.2,0,.37,0,.46s0,.09-.05.1H15a0,0,0,0,0-.05,0s0,0,.06,0h.78a1.06,1.06,0,0,0,.77-.26.86.86,0,0,0,.25-.62A.78.78,0,0,0,16.62,43.53Zm-.14.63a.64.64,0,0,1-.18.52.69.69,0,0,1-.48.14c-.17,0-.26,0-.28-.08a.42.42,0,0,1,0-.14s0-.21,0-.44v-.27c0-.17,0-.35,0-.42s0,0,0,0h.13a.89.89,0,0,1,.62.2A.69.69,0,0,1,16.48,44.15Zm2.13.35s0,0,0,.06a.33.33,0,0,1-.07.14c-.08.09-.18.11-.38.11a.71.71,0,0,1-.68-.74.69.69,0,0,1,.2-.55A.59.59,0,0,1,18,43.4a.62.62,0,0,1,.42.12.29.29,0,0,1,.08.19s0,.06,0,.06,0,0,0-.07,0-.16,0-.23,0-.1,0-.12a0,0,0,0,0,0,0l-.22,0a2.36,2.36,0,0,0-.33,0,1,1,0,0,0-.72.23.86.86,0,0,0,0,1.26,1.17,1.17,0,0,0,.78.24,1.34,1.34,0,0,0,.41,0,.1.1,0,0,0,.07-.08,1.7,1.7,0,0,0,0-.29S18.64,44.51,18.6,44.51Zm1.8,0s0,0,0,.06a.33.33,0,0,1-.07.14c-.08.09-.18.11-.38.11a.71.71,0,0,1-.68-.74.69.69,0,0,1,.2-.55.59.59,0,0,1,.41-.12.62.62,0,0,1,.42.12.29.29,0,0,1,.08.19s0,.06,0,.06,0,0,0-.07,0-.16,0-.23v-.12a0,0,0,0,0,0,0l-.22,0a2.37,2.37,0,0,0-.33,0,1,1,0,0,0-.72.23.85.85,0,0,0,0,1.26,1.17,1.17,0,0,0,.78.24,1.33,1.33,0,0,0,.41,0,.1.1,0,0,0,.07-.08,2.11,2.11,0,0,0,0-.29S20.43,44.51,20.4,44.51Zm1.8,0s0,0,0,.06a.31.31,0,0,1-.07.14c-.08.09-.19.11-.38.11a.71.71,0,0,1-.68-.74.68.68,0,0,1,.2-.55.59.59,0,0,1,.41-.12.62.62,0,0,1,.42.12.29.29,0,0,1,.08.19s0,.06,0,.06,0,0,0-.07,0-.16,0-.23,0-.1,0-.12a0,0,0,0,0,0,0l-.22,0a2.39,2.39,0,0,0-.33,0,1,1,0,0,0-.73.23.85.85,0,0,0,0,1.26,1.16,1.16,0,0,0,.78.24,1.32,1.32,0,0,0,.41,0,.09.09,0,0,0,.07-.08,1.84,1.84,0,0,0,.05-.29A.05.05,0,0,0,22.2,44.51Zm8.68.36H30.8a.21.21,0,0,1-.11-.08c-.05-.06-.41-.62-.49-.75l.36-.5c.07-.1.11-.15.15-.16h.08a0,0,0,0,0,.05,0s0,0-.06,0h-.46s-.06,0-.07,0a0,0,0,0,0,0,0h.06s0,0,0,0a.15.15,0,0,1,0,.07l-.29.43-.27-.45,0-.05h.07s.05,0,.05,0,0,0-.06,0h-.59s-.06,0-.06,0a0,0,0,0,0,0,0h.09a.31.31,0,0,1,.17.15l.39.61-.43.58c-.08.1-.11.13-.17.15h-.08a0,0,0,0,0,0,0s0,0,.05,0h.48s.06,0,.06,0a0,0,0,0,0,0,0h0l0,0h0a.18.18,0,0,1,0-.08l.31-.49.34.56h0a.05.05,0,0,0,0,0s0,0,.1,0h.48s.06,0,.06,0A0,0,0,0,0,30.88,44.87Zm1.91,0H32.7a.21.21,0,0,1-.11-.08c-.05-.06-.41-.62-.49-.75l.37-.5c.07-.1.11-.15.15-.16h.08s.05,0,.05,0,0,0-.06,0h-.45s-.07,0-.07,0a0,0,0,0,0,0,0h.07s0,0,0,0a.15.15,0,0,1,0,.07l-.29.43-.26-.45a.15.15,0,0,1,0-.05h.07s.05,0,.05,0,0,0-.06,0h-.59s-.06,0-.06,0a0,0,0,0,0,0,0h.09a.31.31,0,0,1,.17.15l.39.61-.43.58c-.08.1-.11.13-.17.15h-.08a0,0,0,0,0,0,0s0,0,.05,0h.48s.06,0,.07,0a0,0,0,0,0,0,0h0l0,0h0a.17.17,0,0,1,0-.08l.31-.49.34.56h0a.05.05,0,0,0,0,0s0,0,.1,0h.48s.06,0,.06,0A0,0,0,0,0,32.79,44.87Zm1.91,0h-.08a.22.22,0,0,1-.11-.08c-.05-.06-.41-.62-.49-.75l.37-.5c.07-.1.11-.15.15-.16h.08a0,0,0,0,0,.05,0s0,0-.06,0h-.45s-.07,0-.07,0a0,0,0,0,0,0,0h.07s0,0,0,0a.13.13,0,0,1,0,.07l-.29.43-.27-.45,0-.05h.07s.05,0,.05,0,0,0-.06,0h-.59s-.06,0-.07,0a0,0,0,0,0,0,0h.09a.31.31,0,0,1,.17.15l.39.61-.43.58c-.08.1-.11.13-.17.15H33a0,0,0,0,0,0,0s0,0,.05,0h.48s.06,0,.07,0a0,0,0,0,0,0,0h0l0,0h0a.18.18,0,0,1,0-.08l.32-.49.34.56h0a0,0,0,0,0,0,0s0,0,.1,0h.48s.06,0,.06,0A0,0,0,0,0,34.69,44.87Zm1.17,0h-.11c-.06,0-.07,0-.08-.09s0-.26,0-.47v-.38c0-.33,0-.39,0-.46s0-.09.07-.1h.06s.05,0,.05,0,0,0-.06,0h-.59s-.07,0-.07,0,0,0,.06,0h.08s.06,0,.06.1,0,.13,0,.46v.38c0,.21,0,.38,0,.47s0,.08-.05.09h-.07a0,0,0,0,0-.06,0s0,0,.06,0h.66s.06,0,.06,0A0,0,0,0,0,35.86,44.87Zm1.36,0h-.11c-.06,0-.06,0-.07-.09s0-.26,0-.47v-.38c0-.33,0-.39,0-.46s0-.09.07-.1h.06s.05,0,.05,0,0,0-.06,0h-.59s-.07,0-.07,0,0,0,.06,0h.08s.06,0,.06.1,0,.13,0,.46v.38c0,.21,0,.38,0,.47s0,.08-.05.09h-.08a0,0,0,0,0-.05,0s0,0,.06,0h.66s.06,0,.06,0S37.26,44.87,37.23,44.87Zm1.36,0h-.11c-.06,0-.06,0-.07-.09s0-.26,0-.47v-.38c0-.33,0-.39,0-.46s0-.09.07-.1h.06a0,0,0,0,0,.05,0s0,0-.06,0h-.59s-.07,0-.07,0a0,0,0,0,0,.05,0H38s.06,0,.06.1,0,.13,0,.46v.38c0,.21,0,.38,0,.47s0,.08-.05.09h-.07a0,0,0,0,0-.05,0s0,0,.06,0h.66s.06,0,.06,0S38.62,44.87,38.59,44.87ZM25.09,34.36V33.09a.43.43,0,0,0-.86,0v1.27Zm2.33,0V33.09a.43.43,0,0,0-.86,0v1.27ZM25.83,8.74a.45.45,0,1,0,.45.45A.45.45,0,0,0,25.83,8.74ZM25.6,21.37h.46v-1H25.6v1ZM21.27,46.12a.45.45,0,1,0,.45.45A.45.45,0,0,0,21.27,46.12ZM21,21.39V19.94a.71.71,0,0,0-.42-.68.71.71,0,0,0-.42.68v1.44Zm0-4.63v-.93a.71.71,0,0,0-.42-.68.71.71,0,0,0-.42.68v.93Zm-.19,9.64V25.18a.22.22,0,0,0-.45,0v1.21Zm0,3.64V28.82a.22.22,0,1,0-.45,0V30Zm.13,4.06V33a.36.36,0,0,0-.72,0v1.07ZM20.58,3.74a.45.45,0,1,0,.45.45A.45.45,0,0,0,20.58,3.74ZM31.49,21.39V19.94a.7.7,0,0,0-.42-.68.71.71,0,0,0-.42.68v1.44Zm0-4.63v-.93a.71.71,0,0,0-.42-.68.71.71,0,0,0-.42.68v.93Zm-.19,9.64V25.18a.22.22,0,0,0-.45,0v1.21Zm0,3.64V28.82a.22.22,0,1,0-.45,0V30Zm.13,4.06V33a.36.36,0,0,0-.72,0v1.07ZM31.08,3.74a.45.45,0,1,0,.45.45A.45.45,0,0,0,31.08,3.74ZM106,17.25a8.31,8.31,0,0,1-.08,1.12h-6A2.33,2.33,0,0,0,102.61,21a6.86,6.86,0,0,0,2.8-.6l.23,1.91a9.54,9.54,0,0,1-3.44.62c-3.05,0-4.75-1.53-4.75-4.91,0-2.94,1.62-5.1,4.5-5.1m-.08,1.82A1.92,1.92,0,0,0,100,16.69h3.54A1.63,1.63,0,0,0,101.88,14.77Zm22.33-2.84a1.5,1.5,0,1,1,1.55-1.51A1.53,1.53,0,0,1,124.21,11.93ZM123,22.77v-9.6h2.47v9.6Zm8.73.19c-2.13,0-2.8-.77-2.8-3V15.08h-1.64V13.17h1.64v-3l2.47-.66v3.61h2.34v1.91h-2.34V19.3c0,1.24.29,1.58,1.14,1.58a4.71,4.71,0,0,0,1.2-.15v2A8.5,8.5,0,0,1,131.71,23ZM0,25.91A25.83,25.83,0,0,1,25.83.09h0A25.83,25.83,0,0,1,51.65,25.91h0A25.83,25.83,0,0,1,25.83,51.74h0A25.83,25.83,0,0,1,0,25.91ZM8,8.1A25.11,25.11,0,0,0,.64,25.91h0A25.11,25.11,0,0,0,8,43.72H8A25.11,25.11,0,0,0,25.83,51.1h0a25.11,25.11,0,0,0,17.81-7.38h0A25.11,25.11,0,0,0,51,25.91h0A25.11,25.11,0,0,0,43.64,8.1h0A25.11,25.11,0,0,0,25.83.72h0A25.11,25.11,0,0,0,8,8.1Zm18.2,34h.21v-.36h-.49v.81h.29ZM25.83,1.77A24.14,24.14,0,1,0,50,25.91,24.14,24.14,0,0,0,25.83,1.77ZM23.15,46.39H22.06v.36h1.09v2.71A23.64,23.64,0,0,1,9.06,42.67q-.8-.8-1.52-1.67a1.24,1.24,0,0,1,2.46.2V42.4h1.57V41.21a1.24,1.24,0,1,1,2.48,0V42.4h1.57V41.21a1.24,1.24,0,0,1,2.48,0V42.4h1.57V41.21a1.24,1.24,0,0,1,2.48,0V42.4h1Zm4.5,3.16q-.9.07-1.83.07c-.61,0-1.22,0-1.82-.07l-.45-2.79h.52c-.13-.31-.35-.84-.44-1.06s0-.58.2-.67a.42.42,0,0,1,.56.33l.23.85h.33v.55h0v.11h-.78v.36h1.14v-.47H26.7v-.55H27l.23-.85a.43.43,0,0,1,.57-.33c.23.09.34.32.2.67l-.17.42-.31.75h-.83v.36h1.08l.2-.47h.11Zm-2.58-8h1.5l.29.69c.06.14.14.29,0,.45a.33.33,0,0,1-.37.15h0a.74.74,0,0,1-1.4,0h0a.33.33,0,0,1-.37-.15c-.09-.15,0-.31,0-.45ZM24.85,40l.48.69.49-.93.49.93.48-.69-.19,1.19H25Zm.57,3.37A.81.81,0,0,0,27,43.29a1.14,1.14,0,0,1,.71.28,1.2,1.2,0,0,1,.35.68H23.62a1.21,1.21,0,0,1,.35-.68A1.59,1.59,0,0,1,25.42,43.37Zm1.82,1.24a1.47,1.47,0,0,1-2.83,0Zm15.35-1.94A23.62,23.62,0,0,1,28.5,49.46V46.75h1a30.88,30.88,0,0,0,3.2-.16,23.67,23.67,0,0,0-3.2-.21h-1v-4h1.2V41.21a1.24,1.24,0,0,1,2.48,0V42.4h1.57V41.21a1.24,1.24,0,1,1,2.48,0V42.4h1.57V41.21a1.24,1.24,0,1,1,2.48,0V42.4h1.57V41.21a1.24,1.24,0,0,1,2.41-.4A24,24,0,0,1,42.59,42.67Zm1.94-2.2a1.72,1.72,0,0,0-3.27.73v.55h-.62v-.55a1.72,1.72,0,1,0-3.43,0v.55h-.62v-.55a1.72,1.72,0,1,0-3.43,0v.55h-.62v-.55a1.72,1.72,0,1,0-3.43,0v.55h-.64a2.67,2.67,0,0,0-5.28,0h-.66v-.55a1.72,1.72,0,1,0-3.43,0v.55h-.62v-.55a1.72,1.72,0,1,0-3.43,0v.55h-.62v-.55a1.72,1.72,0,1,0-3.43,0v.55h-.62v-.55a1.72,1.72,0,0,0-3.26-.75q-.63-.81-1.18-1.67H45.73Q45.17,39.66,44.54,40.47Zm1.59-2.31H5.53l-.35-.59H46.47ZM21.74,7.68v.2a.7.7,0,0,1,0,.16,2.75,2.75,0,0,1-.23.41c0,.07-.12.19-.2.35A2.38,2.38,0,0,0,21,8.47l-.24-.26a.66.66,0,0,1-.18-.32h0a.62.62,0,0,1-.17.32l-.24.26a2.34,2.34,0,0,0-.27.35c-.09-.17-.16-.29-.21-.36A2.94,2.94,0,0,1,19.46,8a1,1,0,0,1,0-.2V7.68Zm-2.32-.36a2.47,2.47,0,0,1,.39-1.25,2.3,2.3,0,0,1,.6-.58l.18-.1.17.1a2.3,2.3,0,0,1,.6.58,2.46,2.46,0,0,1,.39,1.25Zm2.41,1.33A2.66,2.66,0,0,1,22,9a1.9,1.9,0,0,1,.13.68v2.67h-.69V9.71A1.94,1.94,0,0,1,21.61,9,2.07,2.07,0,0,1,21.82,8.65ZM21.1,9.73v2.65h-1c0-.74,0-2.66,0-2.66a1.53,1.53,0,0,1,.15-.66,1.16,1.16,0,0,1,.38-.41h0a1.2,1.2,0,0,1,.37.41A1.49,1.49,0,0,1,21.1,9.73ZM19.56,9a1.87,1.87,0,0,1,.12.68v2.67H19V9.71A1.88,1.88,0,0,1,19.13,9a2.88,2.88,0,0,1,.21-.38A2.46,2.46,0,0,1,19.56,9Zm3.13,3.79v.86H18.46v-.86Zm0,1.23v3.37h-1V15.9a1.65,1.65,0,0,0-.49-1.22,1.59,1.59,0,0,0-.58-.35h0a1.59,1.59,0,0,0-.58.35,1.64,1.64,0,0,0-.49,1.22v1.52h-1V14ZM21.3,15.9v1.52H19.85V15.9a1.23,1.23,0,0,1,.73-1.18A1.23,1.23,0,0,1,21.3,15.9Zm1.39,1.88v4.28h-.94V19.92a1.69,1.69,0,0,0-.5-1.24,1.63,1.63,0,0,0-.59-.36l-.08,0-.07,0a1.64,1.64,0,0,0-.6.36,1.68,1.68,0,0,0-.5,1.24v2.14h-.94V17.78Zm-1.3,2.15v2.14H19.77V19.92a1.31,1.31,0,0,1,.39-1,1.25,1.25,0,0,1,.42-.26h0a1.24,1.24,0,0,1,.41.26,1.31,1.31,0,0,1,.39,1Zm1.3,2.5v5.1H18.46v-5.1Zm0,5.46v3.33H18.46V27.89Zm0,3.69V37.2H18.46V31.58Zm3.72-13.76v1.52l-.58-.58-.58.58V17.81Zm-1.14-.44.42-1.82.18-3,.1,3,.42,1.82Zm.56,2,2.69,2.69H23.14Zm2.69,3.06v2.06h-5.4V22.43Zm0,2.7v2.4H26.83v-.6a1,1,0,1,0-2,0v.6h-1.7v-2.4Zm-3.7,2.76V30h2V27.89h1.69v3.33h-5.4V27.89Zm3.7,3.69V37.2h-5.4V31.58ZM32.23,7.68v.2a.7.7,0,0,1,0,.16,2.74,2.74,0,0,1-.23.41,4,4,0,0,0-.2.35,2.38,2.38,0,0,0-.26-.34l-.24-.26a.64.64,0,0,1-.18-.32h0a.62.62,0,0,1-.17.32l-.25.26a2.51,2.51,0,0,0-.27.35c-.09-.17-.16-.29-.21-.36A2.74,2.74,0,0,1,30,8a.89.89,0,0,1,0-.2V7.68Zm-2.32-.36a2.47,2.47,0,0,1,.39-1.25,2.29,2.29,0,0,1,.6-.58l.17-.1.18.1a2.32,2.32,0,0,1,.6.58,2.48,2.48,0,0,1,.39,1.25Zm2.41,1.33a2.65,2.65,0,0,1,.21.39,2,2,0,0,1,.13.68v2.67H32V9.71A1.93,1.93,0,0,1,32.11,9,2.07,2.07,0,0,1,32.32,8.65ZM31.6,9.73v2.65h-1c0-.74,0-2.66,0-2.66a1.56,1.56,0,0,1,.15-.66,1.16,1.16,0,0,1,.38-.41h0a1.2,1.2,0,0,1,.37.41A1.49,1.49,0,0,1,31.6,9.73ZM30.06,9a1.86,1.86,0,0,1,.12.68v2.67H29.5V9.71A1.85,1.85,0,0,1,29.62,9a2.88,2.88,0,0,1,.21-.38A2.45,2.45,0,0,1,30.06,9Zm3.13,3.79v.86H29v-.86Zm0,1.23v3.37h-1V15.9a1.66,1.66,0,0,0-.49-1.22,1.59,1.59,0,0,0-.58-.35h0a1.6,1.6,0,0,0-.58.35A1.65,1.65,0,0,0,30,15.9v1.52H29V14ZM31.8,15.9v1.52H30.35V15.9a1.23,1.23,0,0,1,.73-1.18A1.23,1.23,0,0,1,31.8,15.9Zm1.39,1.88v4.28h-.94V19.92a1.68,1.68,0,0,0-.51-1.24,1.62,1.62,0,0,0-.59-.36l-.08,0-.07,0a1.62,1.62,0,0,0-.6.36,1.69,1.69,0,0,0-.51,1.24v2.14H29V17.78Zm-1.3,2.15v2.14H30.27V19.92a1.32,1.32,0,0,1,.39-1,1.25,1.25,0,0,1,.42-.26h0a1.27,1.27,0,0,1,.42.26,1.31,1.31,0,0,1,.39,1Zm1.3,2.5v5.1H29v-5.1Zm0,5.46v3.33H29V27.89Zm0,3.69V37.2H29V31.58Zm.65,5.63V12.38H33.3V9.64a2.11,2.11,0,0,0-.21-.91,2.15,2.15,0,0,0-.15-.28v-1a3.27,3.27,0,0,0-.32-1.36A2.8,2.8,0,0,0,31.27,5l-.14-.05-.05,0-.07,0a2.31,2.31,0,0,0-1.08.87,3,3,0,0,0-.48,1.68s0,.06,0,.06v.91a2.93,2.93,0,0,0-.24.43,2.34,2.34,0,0,0-.16.86v2.64h-.54v9.06L27.05,20V17.39l-.5-1.67L25.83,10h0l-.54,5.49-.5,1.91v2.4l-1.45,1.45V12.38h-.53V9.64a2.09,2.09,0,0,0-.21-.91,2.15,2.15,0,0,0-.15-.28v-1a3.27,3.27,0,0,0-.32-1.36A2.8,2.8,0,0,0,20.77,5l-.14-.05-.05,0-.07,0a2.29,2.29,0,0,0-1.08.87A3,3,0,0,0,19,7.48s0,.06,0,.06v.91a3,3,0,0,0-.24.43,2.36,2.36,0,0,0-.16.86v2.64H18V37.2H5a23.71,23.71,0,1,1,41.69,0Z"/></svg>